<svg xmlns="http://www.w3.org/2000/svg" viewBox="0 0 232.41 229.03"><defs><style>.cls-1{fill:#e7b00f;}.cls-2{fill:#198515;}.cls-3{fill:#105f10;}.cls-4{fill:#74ad2a;}.cls-5{fill:#afc232;}</style></defs><title>monday_2</title><g id="Layer_2" data-name="Layer 2"><g id="Layer_1-2" data-name="Layer 1"><path d="M66.52,229a226,226,0,0,1,94.92,0c-9.41-7.27-20.85-11.6-33.9-13.56-7.74-29.36-1.45-54.88,29.38-73.71-5-12.16-26.1,5.71-42.94,15.65-17-9.77-38.52-27.77-43.47-15.65,30.12,18.53,39.17,43.2,29.38,73.36C87.2,217,75.84,221.22,66.52,229Z"/><circle class="cls-1" cx="113.98" cy="134.02" r="12.85"/><path class="cls-2" d="M101,121.34c-11.26,7.26-23.16,2.37-36.15-23.47,33.37.73,36.3,9.87,38.15,19.31-8.38-6.52-16-10.66-22.78-11.65A56.22,56.22,0,0,1,101,121.34Z"/><path class="cls-2" d="M129.21,121.34c11.27,7.26,23.16,2.37,36.15-23.47-33.37.73-36.3,9.87-38.15,19.31,8.38-6.52,16-10.66,22.78-11.65A56.22,56.22,0,0,0,129.21,121.34Z"/><path class="cls-3" d="M67.06,138.67C57.08,157,37.13,159.25,0,133.61c46.24-24,57.09-13.66,66.7-2.13-16.36-2.65-30-2.58-39.91,1.11C40.44,131.29,53.85,133.58,67.06,138.67Z"/><path class="cls-3" d="M160.38,141.38c10,18.38,29.93,20.59,67.06-5-46.24-24-57.09-13.67-66.7-2.13,16.36-2.66,30-2.59,39.91,1.1C187,134,173.59,136.29,160.38,141.38Z"/><path class="cls-4" d="M93.43,94.77C72.68,97.35,59.27,82.42,58.49,37.3c46.43,23.62,44.36,38.46,40.58,53C91.7,75.44,83.72,64.43,74.93,58.48,83.93,68.83,89.88,81.06,93.43,94.77Z"/><path class="cls-4" d="M135.91,94.77c20.75,2.58,34.16-12.35,34.94-57.47-46.43,23.62-44.36,38.46-40.57,53,7.36-14.84,15.34-25.85,24.14-31.8C145.41,68.83,139.46,81.06,135.91,94.77Z"/><path class="cls-2" d="M174,103.56c16.9,12.32,35.87,5.76,58.42-33.32C180.35,68.39,175,82.37,171.24,96.91c13.64-9.41,25.95-15.18,36.53-16.12C194.87,85.48,183.74,93.3,174,103.56Z"/><path class="cls-2" d="M59.65,103.56c-16.9,12.32-35.87,5.76-58.41-33.32C53.3,68.39,58.67,82.37,62.41,96.91c-13.64-9.41-26-15.18-36.53-16.12C38.77,85.48,49.9,93.3,59.65,103.56Z"/><path class="cls-5" d="M118.56,67.17c-1.32-3.73-2.42-34.46-3.27-38.21-.86,3.75-2,34.48-3.28,38.21C93.36,57.71,90.59,37.83,115.19,0l.1.17.09-.17C140,37.83,137.21,57.71,118.56,67.17Z"/><path class="cls-2" d="M117.24,114.29c-.76-2.44-1.38-24.88-1.85-27.32-.47,2.44-1.09,24.88-1.85,27.32-10.52-4.87-12.52-15-3-33.7.37-.75.77-1.51,1.19-2.29q1.5-2.79,3.29-5.84l.76-1.27A100.93,100.93,0,0,1,123,85.35c.19.49.38,1,.55,1.45C129,101.59,126.54,110,117.24,114.29Z"/></g></g></svg>